SplineFontDB: 3.2
FontName: BoltSansText-Med
FullName: Bolt Sans Text Medium
FamilyName: Bolt Sans Text
Weight: Medium
Copyright: Copyright (c) 2022, RandomMaerks (Bao Nguyen) || For more information, send a letter to rmforbusiness@gmail.com
UComments: "2022-9-24: Created with FontForge (http://fontforge.org)"
Version: 1.0
ItalicAngle: 0
UnderlinePosition: -100
UnderlineWidth: 50
Ascent: 800
Descent: 200
InvalidEm: 0
LayerCount: 2
Layer: 0 0 "Back" 1
Layer: 1 0 "Fore" 0
XUID: [1021 36 -67577861 13237]
FSType: 0
OS2Version: 0
OS2_WeightWidthSlopeOnly: 0
OS2_UseTypoMetrics: 1
CreationTime: 1664012128
ModificationTime: 1693490997
PfmFamily: 33
TTFWeight: 400
TTFWidth: 5
LineGap: 90
VLineGap: 0
OS2TypoAscent: 0
OS2TypoAOffset: 1
OS2TypoDescent: 0
OS2TypoDOffset: 1
OS2TypoLinegap: 90
OS2WinAscent: 0
OS2WinAOffset: 1
OS2WinDescent: 0
OS2WinDOffset: 1
HheadAscent: 0
HheadAOffset: 1
HheadDescent: 0
HheadDOffset: 1
OS2Vendor: 'Rand'
MarkAttachClasses: 1
DEI: 91125
Encoding: ISO8859-1
UnicodeInterp: none
NameList: AGL For New Fonts
DisplaySize: -36
AntiAlias: 1
FitToEm: 0
WinInfo: 0 25 17
BeginPrivate: 0
EndPrivate
Grid
-1000 710 m 0
 2000 710 l 1024
  Named: "real ch"
-1000 750 m 0
 2000 750 l 1024
  Named: "cap heihgt"
-1000 500 m 0
 2000 500 l 1024
  Named: "x-ehight"
EndSplineSet
BeginChars: 256 41

StartChar: n
Encoding: 110 110 0
GlifName: n
Width: 589
Flags: HW
LayerCount: 2
Fore
SplineSet
72 500 m 1
 157 500 l 1
 177 368 l 1
 202 451.077148438 264 512 345 512 c 0
 458 512 517 431 517 310 c 2
 517 0 l 1
 412 0 l 1
 412 300 l 2
 412 365.763157895 373 419 303 419 c 4
 229 419 177 359.5 177 300 c 2
 177 0 l 1
 72 0 l 1
 72 500 l 1
EndSplineSet
EndChar

StartChar: h
Encoding: 104 104 1
GlifName: h
Width: 589
Flags: HW
LayerCount: 2
Fore
SplineSet
72 750 m 1
 177 750 l 1
 177 368 l 1
 202 451.077148438 264 512 345 512 c 0
 458 512 517 431 517 310 c 2
 517 0 l 1
 412 0 l 1
 412 300 l 2
 412 365.763157895 373 419 303 419 c 4
 229 419 177 359.5 177 300 c 2
 177 0 l 1
 72 0 l 1
 72 750 l 1
EndSplineSet
EndChar

StartChar: m
Encoding: 109 109 2
GlifName: m
Width: 889
Flags: HW
LayerCount: 2
Fore
SplineSet
72 500 m 1
 157 500 l 1
 177 371 l 1
 200 453.366210938 258 512 335 512 c 0
 414 512 465 451.615234375 486 355 c 1
 507 443.564453125 570 512 655 512 c 0
 762 512 817 431 817 310 c 2
 817 0 l 1
 712 0 l 1
 712 300 l 2
 712 365.763157895 676 419 613 419 c 4
 545 419 497 364.5 497 310 c 2
 497 0 l 1
 392 0 l 1
 392 300 l 2
 392 365.763157895 356 419 293 419 c 4
 225 419 177 359.5 177 300 c 2
 177 0 l 1
 72 0 l 1
 72 500 l 1
EndSplineSet
EndChar

StartChar: i
Encoding: 105 105 3
GlifName: i
Width: 249
Flags: HW
LayerCount: 2
Fore
SplineSet
72 500 m 5
 177 500 l 5
 177 0 l 5
 72 0 l 5
 72 500 l 5
72 692 m 5
 177 692 l 5
 177 584 l 5
 72 584 l 5
 72 692 l 5
EndSplineSet
EndChar

StartChar: u
Encoding: 117 117 4
GlifName: u
Width: 569
Flags: HW
LayerCount: 2
Fore
SplineSet
497 0 m 1
 432 0 l 5
 392 132 l 1
 369.083007812 48.9228515625 310.7734375 -12 234 -12 c 0
 127.569335938 -12 72 69 72 190 c 2
 72 500 l 1
 177 500 l 1
 177 200 l 2
 177 134.236842105 212.421875 81 276 81 c 0
 344.126953125 81 392 140.5 392 200 c 2
 392 500 l 1
 497 500 l 1
 497 0 l 1
EndSplineSet
EndChar

StartChar: l
Encoding: 108 108 5
GlifName: l
Width: 249
Flags: HW
LayerCount: 2
Fore
SplineSet
72 750 m 1
 177 750 l 1
 177 0 l 1
 72 0 l 1
 72 750 l 1
EndSplineSet
EndChar

StartChar: o
Encoding: 111 111 6
GlifName: o
Width: 572
Flags: HW
LayerCount: 2
Fore
SplineSet
50.400390625 251 m 0
 50.400390625 411 142.400390625 512 286.400390625 512 c 0
 430.400390625 512 522.400390625 411 522.400390625 251 c 0
 522.400390625 88 430.400390625 -15 286.400390625 -15 c 0
 142.400390625 -15 50.400390625 88 50.400390625 251 c 0
156.400390625 251 m 0
 156.400390625 143.904761905 205.400390625 78 286.400390625 78 c 4
 367.400390625 78 416.400390625 143.904761905 416.400390625 251 c 0
 416.400390625 356.128834356 367.400390625 419 286.400390625 419 c 4
 205.400390625 419 156.400390625 356.128834356 156.400390625 251 c 0
EndSplineSet
EndChar

StartChar: e
Encoding: 101 101 7
GlifName: e
Width: 572
Flags: HW
LayerCount: 2
Fore
SplineSet
410.400390625 306 m 1
 410.400390625 385.027522936 350.400390625 424 286.400390625 424 c 0
 222.400390625 424 168.400390625 378.38621703 162.400390625 306 c 1
 410.400390625 306 l 1
50.400390625 251 m 0
 50.400390625 411 142.400390625 512 286.400390625 512 c 0
 430.400390625 512 522.400390625 415.386454183 522.400390625 262 c 0
 522.400390625 248 521.400390625 240 520.400390625 227 c 5
 158.400390625 227 l 5
 164.797851562 135.224609375 224.103515625 73 303.400390625 73 c 0
 364.507375617 73 398.268811678 96.9460306981 408.400390625 136 c 1
 517.400390625 136 l 1
 506.844336813 37.7531582178 426.612142657 -15 303.400390625 -15 c 0
 149.027011559 -15 50.400390625 88 50.400390625 251 c 0
EndSplineSet
EndChar

StartChar: c
Encoding: 99 99 8
GlifName: c
Width: 574
Flags: HW
LayerCount: 2
Fore
SplineSet
50.400390625 249.5 m 0
 50.400390625 410.701171875 144.059570312 512 293.102539062 512 c 0
 423.1875 512 506.499023438 436.701171875 517.400390625 331 c 1
 408.400390625 331 l 1
 397.541015625 381.025789651 356.936523438 419 291.129882812 419 c 4
 206.900390625 419 156.400390625 355.654183737 156.400390625 250 c 0
 156.400390625 142.823867889 208.12109375 78 293.633789062 78 c 4
 358.544921875 78 398.400390625 114.490080758 408.400390625 162 c 1
 517.400390625 162 l 1
 507.400390625 60.7210007938 419.221679688 -15 287.905273438 -15 c 0
 142.64453125 -15 50.400390625 87.728515625 50.400390625 249.5 c 0
EndSplineSet
EndChar

StartChar: a
Encoding: 97 97 9
GlifName: a
Width: 563
Flags: HW
LayerCount: 2
Fore
SplineSet
365.400390625 328 m 2
 365.400390625 384.890501527 325.290892152 425 268.400390625 425 c 0
 213.955148077 425 184.23083518 405.475206235 166.400390625 358 c 1
 55.400390625 358 l 1
 70.8927719535 452.456849478 150.021484375 512 266.400390625 512 c 0
 388.586914062 512 470.400390625 440.411367187 470.400390625 328 c 2
 470.400390625 85 l 1
 530.400390625 85 l 1
 530.400390625 0 l 1
 495.400390625 0 l 2
 434.296145637 0 387.400390625 22.7275390625 367.400390625 107 c 1
 351.33984375 17.9912109375 285.572760249 -15 202.400390625 -15 c 0
 122.868170751 -15 50.400390625 45.0019467 50.400390625 131 c 0
 50.400390625 231.060360863 120.460716391 290 239.400390625 290 c 2
 365.400390625 290 l 1
 365.400390625 328 l 2
365.400390625 205 m 1
 244.400390625 205 l 2
 185.508615267 205 156.400390625 182.507280958 156.400390625 137 c 0
 156.400390625 96.9728106599 187.115554283 73 238.400390625 73 c 0
 317.917560705 73 365.400390625 113.75298001 365.400390625 182 c 2
 365.400390625 205 l 1
EndSplineSet
EndChar

StartChar: s
Encoding: 115 115 10
GlifName: s
Width: 505
Flags: HW
LayerCount: 2
Fore
SplineSet
455.400390625 143.236328125 m 0
 455.400390625 222.152705017 399.32421875 277.692551881 311.400390625 294.6015625 c 2
 223.400390625 307.30859375 l 2
 185.786132812 314.55435976 165.400390625 333.314923703 165.400390625 360.73046875 c 0
 165.400390625 397.745915017 198.526367188 425 246.495117188 425 c 0
 300.325195312 425 329.400390625 404.717773438 339.400390625 368 c 1
 445.400390625 368 l 1
 435.400390625 454.938476562 359.013671875 512 240.010742188 512 c 0
 129.833984375 512 60.400390625 451.663085938 60.400390625 359.403320312 c 0
 60.400390625 282.005929745 111.2890625 225.265323668 193.400390625 213.002929688 c 2
 273.400390625 200.811523438 l 2
 330.502929688 191.630151567 350.400390625 170.569974141 350.400390625 143.334960938 c 0
 350.400390625 103.423033393 312.209960938 76 257.158203125 76 c 0
 196.5078125 76 166.400390625 96.72265625 156.400390625 135 c 5
 50.400390625 135 l 5
 60.400390625 49.4970703125 142.7421875 -10 267.146484375 -10 c 0
 381.482421875 -10 455.400390625 50.833984375 455.400390625 143.236328125 c 0
EndSplineSet
EndChar

StartChar: t
Encoding: 116 116 11
GlifName: t
Width: 425
Flags: HW
LayerCount: 2
Fore
SplineSet
259 417 m 1
 259 85 l 1
 389 95 l 1
 389 0 l 1
 260 0 l 2
 193.75 0 154 41.4619140625 154 110 c 2
 154 417 l 1
 36 407 l 1
 36 500 l 1
 154 490 l 1
 154 639 l 5
 259 689 l 1
 259 490 l 1
 386 500 l 1
 386 407 l 1
 259 417 l 1
EndSplineSet
EndChar

StartChar: g
Encoding: 103 103 12
GlifName: g
Width: 490
Flags: HW
LayerCount: 2
Fore
SplineSet
201.759765625 -28 m 2
 145.805530895 -28 111.759765625 -52.966894531 111.759765625 -94 c 0
 111.759765625 -138.088639323 145.872758032 -165 201.759765625 -165 c 2
 283.759765625 -165 l 2
 339.714488637 -165 373.759765625 -140.033463542 373.759765625 -99 c 0
 373.759765625 -54.9109754771 339.647261499 -28 283.759765625 -28 c 2
 201.759765625 -28 l 2
191.759765625 -250 m 2
 78.0025662297 -250 5.759765625 -206.110556622 5.759765625 -137 c 0
 5.759765625 -69.1676477123 54.894904636 -26.2660711132 139.759765625 -20 c 1
 89.009765625 -15.519577753 55.759765625 20.8970889137 55.759765625 72 c 0
 55.759765625 123.396342357 85.825860466 161.074106778 134.759765625 171 c 1
 71.6498437057 201.478055243 36.759765625 258.441448028 36.759765625 331 c 0
 36.759765625 441.845421029 112.72825998 512 232.759765625 512 c 2
 459.759765625 512 l 1
 459.759765625 435 l 1
 310.759765625 445 l 1
 382.767863634 414.810732465 426.759765625 360.200095511 426.759765625 301 c 0
 426.759765625 205.819017776 351.125858904 145 232.759765625 145 c 0
 173.891719423 145 151.759765625 120.955408219 151.759765625 57 c 1
 283.759765625 57 l 2
 403.386542263 57 479.759765625 -3.78685124742 479.759765625 -99 c 0
 479.759765625 -191.650102834 404.020826257 -250 283.759765625 -250 c 2
 191.759765625 -250 l 2
142.759765625 331 m 0
 142.759765625 266.144487847 176.634803185 227 232.759765625 227 c 0
 288.884728065 227 322.759765625 266.144487847 322.759765625 331 c 0
 322.759765625 392.800341798 288.941894532 430 232.759765625 430 c 0
 176.578125 430 142.759765625 392.799804688 142.759765625 331 c 0
EndSplineSet
EndChar

StartChar: r
Encoding: 114 114 13
GlifName: r
Width: 443
Flags: HW
LayerCount: 2
Fore
SplineSet
72 500 m 1
 137 500 l 1
 177 397 l 1
 195.921590909 475.109375 242.669318182 510 305 510 c 0
 368.648177083 510 407 471.538085938 407 410 c 2
 407 290 l 1
 313 290 l 5
 303 424 l 1
 263 424 l 2
 216.853515625 424 177 397.842253989 177 320 c 2
 177 0 l 1
 72 0 l 1
 72 500 l 1
EndSplineSet
EndChar

StartChar: f
Encoding: 102 102 14
GlifName: f
Width: 425
Flags: HW
LayerCount: 2
Fore
SplineSet
259 490 m 1
 389 500 l 1
 389 407 l 1
 259 417 l 1
 259 0 l 1
 154 0 l 1
 154 417 l 1
 36 407 l 1
 36 500 l 1
 154 490 l 1
 154 630 l 2
 154 704.400390625 200.845703125 750 280 750 c 2
 389 750 l 1
 389 655 l 1
 259 665 l 1
 259 490 l 1
EndSplineSet
EndChar

StartChar: b
Encoding: 98 98 15
GlifName: b
Width: 593
Flags: HW
LayerCount: 2
Fore
SplineSet
72 750 m 1
 177 750 l 1
 177 356 l 1
 208.436523438 456.918945312 267.047851562 512 343 512 c 0
 464.1875 512 543 408.754882812 543 250 c 0
 543 89.837890625 463.876953125 -15 343 -15 c 0
 266.79296875 -15 208.327148438 40.2958984375 177 142 c 1
 137 0 l 1
 72 0 l 1
 72 750 l 1
177 250 m 2
 177 144.034852171 226.91015625 78 307 78 c 4
 387.08984375 78 437 144.034852171 437 250 c 0
 437 355.720601896 388.323242188 419 307 419 c 4
 225.676757812 419 177 355.720601896 177 250 c 2
 177 250 l 2
EndSplineSet
EndChar

StartChar: d
Encoding: 100 100 16
GlifName: d
Width: 592
Flags: HW
LayerCount: 2
Fore
SplineSet
521.400390625 750 m 1
 416.400390625 750 l 1
 416.400390625 356 l 1
 385.400390625 455.517578125 327.400390625 512 250.400390625 512 c 0
 129.400390625 512 50.400390625 409 50.400390625 250 c 0
 50.400390625 90 129.400390625 -15 250.400390625 -15 c 0
 327.400390625 -15 385.400390625 41.359375 416.400390625 142 c 1
 458.400390625 0 l 5
 521.400390625 0 l 1
 521.400390625 750 l 1
416.400390625 250 m 0
 416.400390625 143.916167665 366.400390625 78 286.400390625 78 c 0
 206.400390625 78 156.400390625 143.916167665 156.400390625 250 c 0
 156.400390625 356.140243902 205.400390625 419 286.400390625 419 c 0
 367.400390625 419 416.400390625 356.140243902 416.400390625 250 c 0
EndSplineSet
EndChar

StartChar: p
Encoding: 112 112 17
GlifName: p
Width: 593
Flags: HW
LayerCount: 2
Fore
SplineSet
72 -200 m 1
 177 -200 l 1
 177 144 l 1
 208 44.482421875 266 -12 343 -12 c 0
 464 -12 543 91 543 250 c 0
 543 410 464 515 343 515 c 0
 266 515 208 458.640625 177 358 c 1
 137 500 l 5
 72 500 l 1
 72 -200 l 1
177 250 m 0
 177 356.083832335 227 422 307 422 c 0
 387 422 437 356.083832335 437 250 c 0
 437 143.859756098 388 81 307 81 c 0
 226 81 177 143.859756098 177 250 c 0
EndSplineSet
EndChar

StartChar: q
Encoding: 113 113 18
GlifName: q
Width: 592
Flags: HW
LayerCount: 2
Fore
SplineSet
521.400390625 -200 m 1
 416.400390625 -200 l 1
 416.400390625 144 l 1
 385.400390625 44.482421875 327.400390625 -12 250.400390625 -12 c 0
 129.400390625 -12 50.400390625 91 50.400390625 250 c 0
 50.400390625 410 129.400390625 515 250.400390625 515 c 0
 327.400390625 515 385.400390625 458.640625 416.400390625 358 c 1
 456.400390625 500 l 5
 521.400390625 500 l 1
 521.400390625 -200 l 1
416.400390625 250 m 0
 416.400390625 356.083832335 366.400390625 422 286.400390625 422 c 0
 206.400390625 422 156.400390625 356.083832335 156.400390625 250 c 0
 156.400390625 143.859756098 205.400390625 81 286.400390625 81 c 0
 367.400390625 81 416.400390625 143.859756098 416.400390625 250 c 0
EndSplineSet
EndChar

StartChar: j
Encoding: 106 106 19
GlifName: j
Width: 249
Flags: HW
LayerCount: 2
Fore
SplineSet
72 500 m 1
 177 500 l 1
 177 -80 l 2
 177 -155 129 -200 51 -200 c 2
 -28 -200 l 1
 -28 -105 l 1
 72 -115 l 5
 72 500 l 1
72 692 m 1
 177 692 l 1
 177 584 l 1
 72 584 l 1
 72 692 l 1
EndSplineSet
EndChar

StartChar: k
Encoding: 107 107 20
GlifName: k
Width: 589
Flags: HW
LayerCount: 2
Fore
SplineSet
72 750 m 1
 177 750 l 1
 177 260 l 1
 364 500 l 1
 500 500 l 1
 314 295 l 5
 517 275 l 1
 517 0 l 1
 412 0 l 1
 412 193 l 1
 177 193 l 1
 177 0 l 1
 72 0 l 1
 72 750 l 1
EndSplineSet
EndChar

StartChar: v
Encoding: 118 118 21
GlifName: v
Width: 534
Flags: HW
LayerCount: 2
Fore
SplineSet
36 500 m 1
 145 500 l 1
 268.5 80.357421875 l 5
 392 500 l 5
 498 500 l 5
 346 0 l 5
 188 0 l 5
 36 500 l 1
EndSplineSet
EndChar

StartChar: w
Encoding: 119 119 22
GlifName: w
Width: 830
Flags: HW
LayerCount: 2
Fore
SplineSet
36 500 m 1
 145 500 l 1
 248.5 80.357421875 l 5
 352 500 l 5
 481 500 l 5
 587.5 80.357421875 l 5
 688 500 l 5
 794 500 l 5
 662 0 l 5
 504 0 l 5
 410 395.930664062 l 5
 326 0 l 5
 168 0 l 5
 36 500 l 1
EndSplineSet
EndChar

StartChar: x
Encoding: 120 120 23
GlifName: x
Width: 574
Flags: HW
LayerCount: 2
Fore
SplineSet
36 500 m 1
 149 500 l 1
 288.5 299.357421875 l 1
 428 500 l 1
 538 500 l 1
 364.807617188 250.5 l 1
 538 1 l 1
 425 1 l 1
 285.5 201.642578125 l 1
 146 1 l 1
 36 1 l 1
 209.192382812 250.5 l 1
 36 500 l 1
EndSplineSet
EndChar

StartChar: y
Encoding: 121 121 24
GlifName: y
Width: 574
Flags: HW
LayerCount: 2
Fore
SplineSet
36 500 m 1
 145 500 l 1
 288 110 l 1
 432 500 l 1
 538 500 l 1
 344 -34 l 2
 319.136763139 -106.816572473 273.640802557 -198 148 -198 c 2
 30 -198 l 1
 30 -110 l 5
 134 -110 l 6
 199.93359375 -110 232.620065789 -50.6742778577 249 -1 c 2
 260 30 l 1
 218 30 l 1
 36 500 l 1
EndSplineSet
EndChar

StartChar: z
Encoding: 122 122 25
GlifName: z
Width: 527
Flags: HW
LayerCount: 2
Fore
SplineSet
470.599609375 88 m 1
 470.599609375 0 l 1
 57.599609375 0 l 1
 57.599609375 98 l 1
 366.228515625 422 l 1
 57.599609375 412 l 1
 57.599609375 500 l 1
 470.599609375 500 l 1
 470.599609375 392 l 1
 161.970703125 78 l 5
 470.599609375 88 l 1
EndSplineSet
EndChar

StartChar: H
Encoding: 72 72 27
GlifName: H_
Width: 709
Flags: HW
LayerCount: 2
Fore
SplineSet
72 710 m 5
 177 710 l 5
 177 405 l 5
 532 405 l 5
 532 710 l 5
 637 710 l 5
 637 0 l 5
 532 0 l 5
 532 312 l 5
 177 312 l 5
 177 0 l 5
 72 0 l 5
 72 710 l 5
EndSplineSet
EndChar

StartChar: N
Encoding: 78 78 28
GlifName: N_
Width: 709
Flags: HW
LayerCount: 2
Fore
SplineSet
72 710 m 1
 197 710 l 1
 542 143 l 5
 532 710 l 1
 637 710 l 1
 637 0 l 1
 532 0 l 1
 167 577 l 1
 177 0 l 1
 72 0 l 1
 72 710 l 1
EndSplineSet
EndChar

StartChar: M
Encoding: 77 77 29
GlifName: M_
Width: 864
Flags: HW
LayerCount: 2
Fore
SplineSet
792 710 m 1
 792 0 l 1
 687 0 l 1
 697 587 l 1
 482 140 l 1
 382 140 l 1
 167 587 l 1
 177 0 l 1
 72 0 l 1
 72 710 l 1
 207 710 l 1
 432 243 l 5
 657 710 l 1
 792 710 l 1
EndSplineSet
EndChar

StartChar: I
Encoding: 73 73 30
GlifName: I_
Width: 249
Flags: HW
LayerCount: 2
Fore
SplineSet
72 710 m 5
 177 710 l 5
 177 0 l 1
 72 0 l 1
 72 710 l 5
EndSplineSet
EndChar

StartChar: O
Encoding: 79 79 31
GlifName: O_
Width: 722
Flags: HW
LayerCount: 2
Fore
SplineSet
50.400390625 356 m 4
 50.400390625 580.368164062 169.688476562 722 356.400390625 722 c 4
 549.213867188 722 672.400390625 580.368164062 672.400390625 356 c 4
 672.400390625 128.658203125 549.213867188 -15 356.400390625 -15 c 4
 169.688476562 -15 50.400390625 128.658203125 50.400390625 356 c 4
156.400390625 356 m 4
 156.400390625 187 231.78515625 83 356.400390625 83 c 4
 487.24609375 83 566.400390625 187 566.400390625 356 c 4
 566.400390625 523.705078125 487.24609375 624 356.400390625 624 c 4
 231.78515625 624 156.400390625 523.705078125 156.400390625 356 c 4
EndSplineSet
EndChar

StartChar: L
Encoding: 76 76 32
GlifName: L_
Width: 575
Flags: HW
LayerCount: 2
Fore
SplineSet
532 93 m 1
 177 83 l 5
 177 710 l 1
 72 710 l 1
 72 0 l 1
 532 0 l 1
 532 93 l 1
EndSplineSet
EndChar

StartChar: E
Encoding: 69 69 33
GlifName: E_
Width: 589
Flags: HW
LayerCount: 2
Fore
SplineSet
532 93 m 1
 177 83 l 1
 177 317 l 1
 502 307 l 1
 502 400 l 1
 177 390 l 1
 177 627 l 1
 532 617 l 1
 532 710 l 1
 72 710 l 1
 72 0 l 1
 532 0 l 1
 532 93 l 1
EndSplineSet
EndChar

StartChar: F
Encoding: 70 70 34
GlifName: F_
Width: 589
Flags: HW
LayerCount: 2
Fore
SplineSet
177 0 m 1
 177 317 l 1
 502 307 l 1
 502 400 l 1
 177 390 l 5
 177 627 l 1
 532 617 l 1
 532 710 l 1
 72 710 l 1
 72 0 l 1
 177 0 l 1
EndSplineSet
EndChar

StartChar: T
Encoding: 84 84 35
GlifName: T_
Width: 605
Flags: HW
LayerCount: 2
Fore
SplineSet
562.200195312 617 m 1
 562.200195312 710 l 1
 43.2001953125 710 l 1
 43.2001953125 617 l 1
 250.200195312 627 l 5
 250.200195312 0 l 1
 355.200195312 0 l 1
 355.200195312 627 l 5
 562.200195312 617 l 1
EndSplineSet
EndChar

StartChar: C
Encoding: 67 67 36
GlifName: C_
Width: 717
Flags: HW
LayerCount: 2
Fore
SplineSet
50.400390625 355.697265625 m 0
 50.400390625 581.861328125 172.004882812 722 368.256835938 722 c 0
 541.296875 722 646.192382812 621.380444056 667.400390625 481 c 5
 558.400390625 481 l 5
 536.975585938 562.33279213 473.08984375 624 363.877929688 624 c 0
 233.774414062 624 156.400390625 524.415039062 156.400390625 356.96484375 c 0
 156.400390625 186.700195312 236.165039062 83 367.129882812 83 c 0
 475.206054688 83 538.400390625 144.763768326 558.400390625 225 c 5
 667.400390625 225 l 5
 647.400390625 88.5180288462 537.366210938 -15 365.924804688 -15 c 0
 172.587890625 -15 50.400390625 128.552734375 50.400390625 355.697265625 c 0
EndSplineSet
EndChar

StartChar: Q
Encoding: 81 81 37
GlifName: Q_
Width: 716
Flags: HW
LayerCount: 2
Fore
SplineSet
332.400390625 253 m 1
 403.400390625 317 l 1
 715.400390625 -10 l 5
 647.400390625 -74 l 5
 332.400390625 253 l 1
50.400390625 356 m 0
 50.400390625 580.368164062 169.688476562 722 356.400390625 722 c 0
 549.213867188 722 672.400390625 580.368164062 672.400390625 356 c 0
 672.400390625 128.658203125 549.213867188 -15 356.400390625 -15 c 0
 169.688476562 -15 50.400390625 128.658203125 50.400390625 356 c 0
156.400390625 356 m 0
 156.400390625 187 231.78515625 83 356.400390625 83 c 0
 487.24609375 83 566.400390625 187 566.400390625 356 c 0
 566.400390625 523.705078125 487.24609375 624 356.400390625 624 c 0
 231.78515625 624 156.400390625 523.705078125 156.400390625 356 c 0
EndSplineSet
EndChar

StartChar: G
Encoding: 71 71 38
GlifName: G_
Width: 717
Flags: HW
LayerCount: 2
Fore
SplineSet
667.400390625 0 m 1
 602.400390625 0 l 1
 574.400390625 272 l 1
 355.400390625 272 l 1
 355.400390625 365 l 1
 667.400390625 365 l 1
 667.400390625 0 l 1
50.400390625 351.7265625 m 0
 50.400390625 581.5 170.547851562 722 367.038085938 722 c 0
 540.404296875 722 646.182617188 616.417138111 667.400390625 491 c 1
 558.400390625 491 l 1
 536.958984375 566.389402799 472.145507812 624 362.600585938 624 c 0
 232.959960938 624 156.400390625 524.810546875 156.400390625 356.852539062 c 0
 156.400390625 187.104492188 234.724609375 83 362.436523438 83 c 0
 485.987304688 83 555.400390625 162.857421875 555.400390625 305 c 1
 577.400390625 305 l 5
 577.400390625 103.985351562 489.036132812 -15 339.752929688 -15 c 0
 164.466796875 -15 50.400390625 129.567382812 50.400390625 351.7265625 c 0
EndSplineSet
EndChar

StartChar: S
Encoding: 83 83 39
GlifName: S_
Width: 665
Flags: HW
LayerCount: 2
Fore
SplineSet
615.400390625 193.236328125 m 0
 615.400390625 300.828125 533.268554688 377.982421875 411.400390625 399.6015625 c 2
 283.400390625 422.30859375 l 2
 204.862304688 436.241210938 165.400390625 470.221679688 165.400390625 520.73046875 c 0
 165.400390625 583.663085938 231.205078125 630 326.495117188 630 c 0
 426.677734375 630 499.400390625 578.212519959 499.400390625 503 c 1
 605.400390625 503 l 1
 605.400390625 630.781441901 485.366210938 722 320.010742188 722 c 0
 160.759765625 722 60.400390625 641.893554688 60.400390625 519.403320312 c 0
 60.400390625 415.04296875 136.698242188 343.719726562 253.400390625 322.002929688 c 2
 383.400390625 297.811523438 l 2
 471.927734375 281.337890625 510.400390625 242.840820312 510.400390625 193.334960938 c 0
 510.400390625 126.750976562 439.444335938 81 337.158203125 81 c 0
 228.353515625 81 156.400390625 127.30501302 156.400390625 199 c 5
 50.400390625 199 l 5
 50.400390625 79.0667132915 176.82421875 -10 347.146484375 -10 c 0
 510.0703125 -10 615.400390625 70.6845703125 615.400390625 193.236328125 c 0
EndSplineSet
EndChar

StartChar: K
Encoding: 75 75 40
GlifName: K_
Width: 634
Flags: HW
LayerCount: 2
Fore
SplineSet
72 710 m 1
 177 710 l 1
 177 340 l 1
 455 710 l 1
 591 710 l 1
 314 370 l 1
 577 360 l 5
 577 0 l 1
 472 0 l 1
 472 273 l 1
 177 273 l 1
 177 0 l 1
 72 0 l 1
 72 710 l 1
EndSplineSet
EndChar
